<?xml version="1.0" standalone="no"?>
<!DOCTYPE svg PUBLIC "-//W3C//DTD SVG 20010904//EN"
 "http://www.w3.org/TR/2001/REC-SVG-20010904/DTD/svg10.dtd">
<svg version="1.0" xmlns="http://www.w3.org/2000/svg"
 width="617.000000pt" height="362.000000pt" viewBox="0 0 617.000000 362.000000"
 preserveAspectRatio="xMidYMid meet">

<g transform="translate(0.000000,362.000000) scale(0.100000,-0.100000)"
fill="#000000" stroke="none">
<path d="M2142 3014 l-22 -15 0 -598 c0 -580 1 -598 19 -616 18 -16 49 -17
371 -16 l350 1 -5 -25 c-3 -14 -7 -36 -10 -49 -3 -14 -23 -46 -46 -72 -25 -29
-37 -50 -31 -56 25 -25 562 -20 562 5 0 6 -16 28 -36 48 -40 41 -71 128 -50
142 6 4 155 7 331 7 176 -1 328 -1 337 0 9 0 24 7 32 16 14 14 16 83 16 614 0
531 -2 600 -16 614 -14 14 -109 16 -897 16 -783 0 -885 -2 -905 -16z m1722
-60 c14 -5 16 -57 16 -475 0 -306 -3 -469 -10 -469 -5 0 -379 0 -830 0 -451 0
-824 0 -830 0 -16 0 -14 937 3 943 18 8 1632 8 1651 1z m-795 -1081 c12 -23
-4 -53 -29 -53 -25 0 -41 29 -29 52 12 23 45 23 58 1z"/>
<path d="M2478 2602 c-16 -3 -18 -18 -18 -148 l0 -144 35 0 34 0 3 73 c3 66 5
72 25 75 29 4 45 -34 41 -98 -2 -44 -2 -45 31 -48 l33 -3 -3 85 c-3 63 -8 90
-21 102 -18 18 -62 23 -90 10 -16 -7 -18 -2 -18 42 0 52 -11 63 -52 54z"/>
<path d="M3447 2593 c-6 -10 -87 -286 -87 -296 0 -4 8 -7 18 -7 19 0 30 29 93
248 17 60 17 62 -1 62 -10 0 -21 -3 -23 -7z"/>
<path d="M3542 2452 c-24 -81 -43 -150 -42 -154 0 -5 9 -8 20 -8 11 0 20 3 20
8 0 4 20 73 44 155 43 144 44 147 23 147 -20 0 -27 -17 -65 -148z"/>
<path d="M2738 2563 c-10 -2 -18 -13 -18 -24 0 -11 -7 -22 -15 -25 -8 -4 -15
-15 -15 -25 0 -11 7 -22 15 -25 11 -5 15 -22 15 -63 0 -64 13 -89 50 -91 44
-4 50 -1 50 25 0 19 -5 25 -21 25 -18 0 -20 5 -17 53 2 43 6 51 21 49 12 -2
17 4 17 23 0 18 -5 25 -20 25 -16 0 -20 7 -20 30 0 30 -6 33 -42 23z"/>
<path d="M2888 2563 c-11 -3 -18 -14 -18 -29 0 -15 -6 -24 -15 -24 -19 0 -20
-36 -1 -47 10 -5 16 -29 18 -67 3 -50 7 -62 29 -78 18 -14 33 -17 52 -13 35 9
36 42 2 55 -21 8 -25 16 -25 54 0 38 3 45 25 50 16 4 25 13 25 26 0 15 -7 20
-25 20 -21 0 -25 5 -25 30 0 30 -6 33 -42 23z"/>
<path d="M3098 2506 c-16 -8 -28 -11 -28 -5 0 5 -13 9 -29 9 l-28 0 0 -140 c0
-110 3 -140 13 -141 49 -5 49 -5 52 43 3 46 4 47 29 37 98 -37 162 123 76 191
-30 24 -48 25 -85 6z m46 -52 c31 -30 11 -104 -28 -104 -37 0 -52 90 -18 109
23 14 28 14 46 -5z"/>
<path d="M3265 2490 c-13 -41 43 -70 64 -33 13 25 -5 53 -34 53 -15 0 -26 -7
-30 -20z"/>
<path d="M3270 2365 c-15 -18 -5 -51 18 -60 25 -9 55 31 42 56 -13 23 -43 25
-60 4z"/>
<path d="M4888 1292 l-48 -3 0 -40 c0 -32 3 -39 20 -39 19 0 20 -4 14 -69 -7
-68 -6 -71 25 -110 31 -39 35 -41 87 -41 l54 0 0 -70 c0 -56 -3 -70 -15 -70
-11 0 -15 -11 -15 -40 l0 -41 78 3 77 3 0 40 c0 32 -4 40 -17 39 -16 -2 -18 8
-18 67 l0 69 45 0 c41 0 47 3 80 46 31 42 35 53 35 110 0 57 2 63 23 66 17 2
23 10 25 40 3 35 2 37 -30 40 -18 2 -54 1 -80 0 l-48 -4 0 -39 c0 -33 3 -39
20 -39 19 0 20 -4 14 -52 -11 -85 -20 -91 -142 -86 -119 5 -122 7 -122 86 0
49 1 52 25 52 22 0 25 4 25 39 0 36 -2 39 -32 42 -18 2 -54 3 -80 1z"/>
<path d="M763 1282 c-19 -3 -23 -10 -23 -38 0 -27 4 -34 20 -34 19 0 20 -7 20
-179 0 -170 -1 -179 -20 -184 -15 -4 -20 -14 -20 -41 l0 -37 78 3 77 3 3 38
c3 32 0 37 -17 37 -20 0 -21 5 -21 180 0 175 1 180 21 180 17 0 20 5 17 36
l-3 37 -55 1 c-30 1 -65 0 -77 -2z"/>
<path d="M1910 1238 c-28 -129 -70 -345 -70 -365 0 -18 -6 -23 -25 -23 -22 0
-25 -4 -25 -35 0 -26 4 -35 18 -36 9 0 26 -2 37 -4 11 -2 39 -1 62 2 41 5 43
7 43 39 0 24 -5 34 -15 34 -18 0 -19 18 -4 93 l12 57 98 0 98 0 10 -37 c21
-86 23 -113 6 -113 -21 0 -21 -68 0 -76 9 -4 45 -3 80 1 l65 7 0 34 c0 29 -3
34 -23 34 -23 0 -25 9 -67 220 l-43 220 -123 0 -122 0 -12 -52z m193 -40 c3
-13 9 -45 12 -73 l7 -50 -82 -2 -82 -3 6 28 c3 15 8 45 12 67 4 22 9 43 11 48
2 4 28 7 58 7 47 0 53 -3 58 -22z"/>
<path d="M2500 1253 l-37 -38 -7 -174 -8 -174 48 -48 48 -49 118 0 118 0 45
41 45 42 0 84 c0 79 -2 85 -27 108 -24 21 -38 24 -100 25 l-73 0 0 -40 0 -40
48 0 c59 0 72 -12 72 -66 0 -62 -22 -74 -130 -74 -77 0 -89 2 -106 23 -19 21
-20 30 -12 171 5 90 12 154 20 163 9 12 32 14 104 11 79 -3 96 -6 116 -26 l24
-22 23 24 23 24 -28 36 -29 36 -129 0 -128 0 -38 -37z"/>
<path d="M3048 1282 c-25 -3 -28 -8 -28 -38 0 -27 4 -34 20 -34 19 0 20 -7 20
-179 0 -172 -1 -179 -21 -184 -16 -4 -20 -12 -17 -39 l3 -33 75 0 75 0 3 38
c3 32 0 37 -17 37 -20 0 -21 5 -21 180 0 175 1 180 21 180 17 0 20 5 17 37
l-3 37 -50 1 c-27 0 -62 -1 -77 -3z"/>
<path d="M3614 1276 c-11 -29 0 -61 21 -61 13 0 20 -6 19 -18 0 -9 -1 -70 -2
-134 l-2 -118 -21 35 c-12 19 -53 95 -91 168 l-70 132 -64 0 -64 0 0 -35 c0
-24 5 -35 15 -35 13 0 15 -27 15 -180 0 -153 -2 -180 -15 -180 -11 0 -15 -11
-15 -40 l0 -41 78 3 77 3 3 33 c3 27 -1 35 -17 39 -20 5 -21 12 -21 137 l0
131 88 -170 88 -170 72 -3 72 -3 0 41 c0 33 -3 40 -20 40 -19 0 -20 7 -20 179
0 171 1 180 20 186 15 5 20 15 20 41 l0 34 -80 0 c-61 0 -82 -4 -86 -14z"/>
<path d="M3963 1282 c-19 -3 -23 -10 -23 -38 0 -27 4 -34 20 -34 19 0 20 -7
20 -179 0 -170 -1 -179 -20 -184 -15 -4 -20 -14 -20 -41 l0 -37 78 3 77 3 3
33 c3 27 -1 35 -17 39 -20 5 -21 12 -21 183 0 169 1 178 20 183 15 4 20 14 20
36 0 28 -3 31 -32 32 -18 1 -44 2 -58 3 -14 1 -35 0 -47 -2z"/>
<path d="M4450 1279 c-107 -4 -196 -7 -197 -8 -2 0 -3 -16 -3 -35 0 -28 4 -35
23 -38 21 -3 22 -7 19 -72 -2 -38 -1 -133 3 -213 l7 -144 37 3 36 3 -1 100
c-1 62 3 103 10 107 19 13 56 9 62 -7 4 -9 19 -15 40 -15 l34 0 0 64 c0 64 0
64 -31 68 -20 3 -33 0 -36 -9 -3 -8 -21 -13 -45 -13 l-39 0 3 63 3 62 118 3
117 3 0 -31 c0 -30 2 -31 37 -28 36 3 37 4 40 48 4 59 -3 87 -24 91 -10 2
-106 1 -213 -2z"/>
<path d="M1060 1240 c0 -32 4 -40 18 -40 17 0 18 -13 17 -175 0 -166 -1 -174
-20 -177 -15 -2 -20 -11 -22 -40 l-2 -38 79 0 80 0 0 40 c0 28 -4 40 -14 40
-21 0 -23 16 -18 145 l5 119 29 -94 c16 -52 40 -132 54 -177 l25 -83 48 0 48
0 22 73 c12 39 39 119 61 177 l39 105 0 -131 c1 -121 -1 -132 -18 -137 -14 -3
-19 -14 -19 -41 l0 -36 79 0 79 0 0 40 c0 33 -3 40 -20 40 -19 0 -20 7 -20
174 0 166 1 175 20 181 15 5 20 15 20 41 l0 35 -82 -3 -81 -3 -60 -172 c-33
-95 -63 -173 -67 -173 -4 0 -34 78 -66 173 l-59 172 -77 3 -78 3 0 -41z"/>
<path d="M1200 432 c0 -58 0 -59 28 -57 43 2 52 12 49 53 -3 50 -13 62 -48 62
-29 0 -29 0 -29 -58z m60 28 c0 -15 -7 -20 -25 -20 -18 0 -25 5 -25 20 0 15 7
20 25 20 18 0 25 -5 25 -20z m8 -52 c3 -14 -3 -18 -27 -18 -25 0 -31 4 -31 21
0 16 5 20 27 17 17 -2 29 -10 31 -20z"/>
<path d="M1311 433 c1 -32 4 -48 6 -35 5 27 29 29 45 2 7 -11 17 -20 22 -20 4
0 3 7 -4 15 -10 12 -10 22 -3 38 15 33 -1 57 -37 57 -30 0 -30 0 -29 -57z m59
22 c0 -20 -5 -25 -25 -25 -20 0 -25 5 -25 25 0 20 5 25 25 25 20 0 25 -5 25
-25z"/>
<path d="M1410 435 c0 -30 5 -55 10 -55 6 0 10 25 10 55 0 30 -4 55 -10 55 -5
0 -10 -25 -10 -55z"/>
<path d="M1462 428 l1 -63 6 49 6 49 23 -42 c13 -22 27 -41 33 -41 5 0 8 26 7
58 l-1 57 -6 -45 -6 -45 -28 43 c-15 23 -29 42 -32 42 -3 0 -4 -28 -3 -62z"/>
<path d="M1577 483 c-4 -3 -7 -28 -7 -54 0 -50 16 -63 60 -52 21 5 30 53 10
53 -5 0 -10 -9 -10 -20 0 -15 -7 -20 -25 -20 -23 0 -25 4 -25 44 0 43 1 45 33
49 l32 4 -31 1 c-17 1 -34 -1 -37 -5z"/>
<path d="M1700 486 c0 -2 11 -28 25 -58 14 -29 25 -45 25 -35 0 10 9 36 20 57
11 22 17 40 12 40 -5 0 -15 -15 -24 -32 l-15 -33 -17 33 c-14 28 -26 40 -26
28z"/>
<path d="M1804 477 c-10 -27 0 -90 16 -95 13 -4 13 -3 2 11 -7 9 -12 31 -10
49 3 28 7 34 31 36 28 3 28 3 25 -45 -2 -32 -7 -47 -15 -45 -7 1 -13 -2 -13
-8 0 -14 13 -13 34 3 13 10 17 24 14 57 -3 44 -4 45 -41 48 -25 2 -39 -1 -43
-11z"/>
<path d="M1922 438 c-2 -49 1 -58 16 -58 11 0 13 3 5 8 -6 4 -13 30 -16 57
l-3 50 -2 -57z"/>
<path d="M1990 448 c0 -25 -7 -49 -17 -61 -17 -19 -17 -20 5 -8 18 10 22 20
22 61 0 28 -2 50 -5 50 -3 0 -5 -19 -5 -42z"/>
<path d="M2031 433 c1 -32 4 -48 6 -35 6 30 36 28 53 -3 7 -14 15 -23 17 -21
3 2 0 13 -6 24 -7 13 -7 22 0 29 6 6 9 21 7 34 -2 20 -10 25 -40 27 l-38 3 1
-58z m64 22 c0 -14 -8 -21 -27 -23 -24 -3 -28 0 -28 23 0 23 4 26 28 23 19 -2
27 -9 27 -23z"/>
<path d="M2183 435 c0 -33 2 -45 4 -27 2 18 2 45 0 60 -2 15 -4 0 -4 -33z"/>
<path d="M2222 433 c2 -48 6 -58 21 -57 9 1 26 2 38 3 18 1 20 7 17 54 l-3 52
-38 3 -38 3 3 -58z m66 0 c3 -42 2 -43 -27 -43 -30 0 -31 1 -31 46 0 44 1 45
28 42 24 -3 27 -7 30 -45z"/>
<path d="M2332 433 c3 -57 3 -58 36 -61 18 -2 32 1 32 7 0 6 -13 11 -30 11
-41 0 -43 37 -2 43 l27 4 -27 2 c-21 1 -28 6 -28 20 0 15 8 21 38 24 l37 4
-43 1 -43 2 3 -57z"/>
<path d="M2436 443 c-18 -51 -21 -76 -7 -54 12 19 51 22 58 4 3 -7 9 -13 13
-13 4 0 -1 25 -13 55 -11 30 -23 55 -27 55 -5 0 -15 -21 -24 -47z m37 -3 c5
-21 -7 -35 -22 -26 -10 7 -3 46 9 46 4 0 10 -9 13 -20z"/>
<path d="M2524 475 c-9 -23 3 -43 28 -47 12 -2 24 -11 26 -20 3 -14 -3 -18
-27 -18 -17 0 -31 -4 -31 -9 0 -5 8 -8 18 -6 9 2 25 4 35 4 30 1 19 54 -13 61
-34 8 -31 33 5 41 l30 7 -33 1 c-21 1 -35 -4 -38 -14z"/>
<path d="M2657 483 c19 -4 23 -12 26 -56 l3 -52 2 52 c2 40 6 53 20 56 9 3 -3
5 -28 4 -25 0 -35 -2 -23 -4z"/>
<path d="M2747 483 c-4 -3 -7 -26 -7 -50 0 -36 4 -45 22 -52 44 -16 58 -3 58
55 l0 54 -33 0 c-19 0 -37 -3 -40 -7z m63 -48 c0 -43 -1 -45 -30 -45 -29 0
-30 2 -30 45 0 43 1 45 30 45 29 0 30 -2 30 -45z"/>
<path d="M2892 433 c3 -55 4 -57 31 -59 15 0 30 3 33 8 3 4 -6 8 -20 8 -24 0
-26 3 -26 50 0 28 -5 50 -10 50 -7 0 -10 -22 -8 -57z"/>
<path d="M2980 435 c0 -30 5 -55 10 -55 6 0 10 25 10 55 0 30 -4 55 -10 55 -5
0 -10 -25 -10 -55z"/>
<path d="M3031 433 c1 -32 4 -48 6 -35 3 16 12 22 31 23 l27 1 -27 10 c-40 14
-37 46 5 51 31 4 31 4 -5 5 l-38 2 1 -57z"/>
<path d="M3122 433 l3 -58 33 0 c17 0 32 3 32 8 0 4 -13 7 -30 7 -41 0 -43 37
-2 43 l27 4 -27 2 c-21 1 -28 6 -28 20 0 15 8 21 38 24 l37 4 -43 1 -43 2 3
-57z"/>
<path d="M3240 487 c0 -17 33 -107 39 -107 5 0 15 17 23 38 l15 37 8 -37 c10
-53 29 -47 43 13 16 67 8 75 -11 12 l-14 -48 -9 34 c-13 45 -30 50 -39 12 -9
-43 -22 -39 -30 9 -4 22 -11 40 -16 40 -5 0 -9 -1 -9 -3z"/>
<path d="M3403 435 c0 -33 2 -45 4 -27 2 18 2 45 0 60 -2 15 -4 0 -4 -33z"/>
<path d="M3447 483 c19 -4 23 -12 26 -56 l3 -52 2 52 c2 45 5 52 25 56 12 2 0
4 -28 4 -27 0 -40 -2 -28 -4z"/>
<path d="M3530 435 c0 -30 5 -55 10 -55 6 0 10 11 10 25 0 20 5 25 25 25 20 0
25 -5 25 -25 0 -14 4 -25 10 -25 12 0 11 98 -1 106 -5 3 -9 -6 -9 -20 0 -21
-5 -26 -25 -26 -20 0 -25 5 -25 25 0 14 -4 25 -10 25 -5 0 -10 -25 -10 -55z"/>
<path d="M3692 439 c-2 -62 10 -75 56 -58 19 7 22 15 20 61 l-1 53 -6 -50 c-5
-45 -9 -50 -33 -53 -26 -3 -27 -1 -31 50 l-3 53 -2 -56z"/>
<path d="M3802 433 l1 -58 6 45 6 45 28 -47 c15 -27 30 -48 32 -48 3 0 4 28 3
63 -1 59 -1 60 -7 17 l-6 -45 -24 43 c-14 23 -28 42 -33 42 -4 0 -7 -26 -6
-57z"/>
<path d="M3910 435 c0 -30 5 -55 10 -55 6 0 10 25 10 55 0 30 -4 55 -10 55 -5
0 -10 -25 -10 -55z"/>
<path d="M3960 436 c0 -44 3 -56 15 -56 9 0 18 -7 21 -15 4 -8 10 -15 16 -15
5 0 6 5 3 11 -4 6 1 16 10 23 12 8 16 24 13 56 -3 44 -4 45 -40 48 l-38 3 0
-55z m68 -2 c2 -30 -1 -43 -12 -47 -32 -12 -46 3 -46 50 0 42 1 44 28 41 24
-3 27 -8 30 -44z"/>
<path d="M4072 443 c-2 -57 15 -77 56 -66 20 5 22 12 20 62 l-2 56 -3 -51 c-3
-40 -8 -53 -22 -57 -30 -7 -39 5 -44 58 l-3 50 -2 -52z"/>
<path d="M4182 433 c3 -55 4 -58 30 -59 15 -1 33 3 40 7 8 6 2 9 -19 9 -26 0
-33 4 -33 19 0 12 8 21 23 24 l22 4 -22 2 c-38 2 -30 39 10 44 27 3 26 4 -11
5 l-43 2 3 -57z"/>
<path d="M4323 430 c0 -36 2 -50 4 -32 2 17 2 47 0 65 -2 17 -4 3 -4 -33z"/>
<path d="M4365 434 c-4 -31 -4 -58 -2 -60 3 -3 8 18 12 46 l7 52 20 -43 20
-44 18 38 c19 42 30 39 30 -10 0 -18 4 -33 9 -33 5 0 8 8 6 18 -2 9 -7 34 -10
55 -3 20 -9 37 -13 37 -5 0 -15 -19 -24 -42 l-16 -43 -17 43 c-9 23 -21 42
-25 42 -4 0 -11 -25 -15 -56z"/>
<path d="M4525 453 c-9 -20 -18 -48 -22 -62 l-6 -26 19 23 c18 21 21 21 47 7
27 -14 28 -14 21 7 -12 38 -34 88 -39 88 -3 0 -12 -17 -20 -37z m31 -30 c-10
-26 -29 1 -21 28 7 20 8 21 17 5 5 -9 7 -24 4 -33z"/>
<path d="M4617 483 c-4 -3 -7 -28 -7 -54 0 -45 1 -47 33 -52 17 -2 35 -3 40 0
11 6 9 53 -3 53 -5 0 -10 -9 -10 -20 0 -15 -7 -20 -26 -20 -23 0 -25 3 -22 42
3 39 6 44 33 49 l30 7 -31 1 c-17 0 -34 -2 -37 -6z"/>
<path d="M4722 433 c3 -57 3 -58 36 -59 17 -1 32 3 32 7 0 5 -13 9 -30 9 -23
0 -30 5 -30 19 0 12 8 21 23 24 l22 4 -22 2 c-38 2 -30 39 10 44 31 4 31 4 -6
5 l-38 2 3 -57z"/>
<path d="M4810 475 c-16 -19 0 -40 35 -49 40 -10 31 -36 -12 -36 -26 0 -33 -3
-24 -9 7 -5 25 -5 40 -2 38 11 37 55 -1 59 -42 5 -38 39 5 45 l32 4 -31 1
c-18 1 -37 -5 -44 -13z"/>
</g>
</svg>
