<?xml version="1.0" standalone="no"?>
<!DOCTYPE svg PUBLIC "-//W3C//DTD SVG 20010904//EN"
 "http://www.w3.org/TR/2001/REC-SVG-20010904/DTD/svg10.dtd">
<svg version="1.0" xmlns="http://www.w3.org/2000/svg"
 width="574.000000pt" height="185.000000pt" viewBox="0 0 574.000000 185.000000"
 preserveAspectRatio="xMidYMid meet">

<g transform="translate(0.000000,185.000000) scale(0.100000,-0.100000)"
fill="#000000" stroke="none">
<path d="M0 925 l0 -925 2870 0 2870 0 0 925 0 925 -2870 0 -2870 0 0 -925z
m1530 155 l0 -290 -95 0 -94 0 -3 108 -3 107 -60 -105 -61 -105 -76 -3 c-87
-3 -90 -1 -93 91 l-2 49 19 -24 c10 -12 20 -31 24 -41 5 -15 15 -17 51 -15
l46 3 106 184 106 184 3 -186 2 -187 35 0 35 0 0 230 0 230 -54 0 -54 0 -108
-185 c-59 -102 -110 -188 -114 -190 -4 -2 -26 30 -50 72 -34 60 -43 86 -45
129 -1 30 -1 54 0 54 2 0 22 -34 46 -75 23 -41 45 -75 48 -75 3 0 46 72 94
159 48 87 91 161 94 165 4 3 51 6 105 6 l98 0 0 -290z m417 283 c-106 -182
-279 -487 -284 -498 -5 -14 1 -16 32 -13 l38 3 123 214 c68 118 127 218 131
222 6 6 277 -452 291 -492 2 -5 -42 -9 -105 -9 l-108 0 -53 90 c-28 49 -52 95
-52 102 0 8 7 24 16 37 16 23 17 22 71 -73 55 -95 56 -96 94 -96 l38 0 -57 98
c-32 53 -73 125 -92 160 -19 34 -37 62 -40 62 -3 -1 -54 -86 -113 -190 l-109
-190 -110 0 c-60 0 -108 4 -106 8 4 10 201 354 275 480 52 88 55 92 89 92 19
0 33 -3 31 -7z m891 -90 l-3 -98 -197 -3 -197 -2 -26 -32 c-23 -27 -26 -39
-22 -71 10 -72 29 -82 177 -85 l130 -4 0 -35 0 -35 -129 4 c-120 3 -131 5
-171 31 -98 66 -94 205 9 274 32 22 44 23 197 23 l164 0 0 30 0 30 -169 0
c-185 0 -216 -7 -268 -59 -114 -114 -83 -300 60 -367 48 -22 64 -24 215 -24
l162 0 0 95 0 94 -152 3 -153 3 -3 33 -3 32 191 0 190 0 -2 -162 -3 -163 -205
1 c-229 0 -257 7 -335 75 -137 121 -121 366 31 460 71 44 99 48 312 49 l203 0
-3 -97z m262 -133 l0 -230 -30 0 -30 0 0 195 0 195 -35 0 -35 0 0 -225 0 -225
65 0 65 0 0 -35 0 -35 -95 0 -95 0 0 295 0 295 95 0 95 0 0 -230z m386 93
l119 -137 3 137 3 137 99 0 100 0 0 -289 0 -288 -91 -8 c-69 -5 -94 -3 -106 7
-9 7 -83 91 -165 186 l-149 172 3 48 3 47 170 -197 169 -198 48 0 48 0 0 225
0 225 -30 0 -30 0 -2 -194 -3 -195 -165 194 -165 194 -52 0 -53 1 0 -225 0
-225 30 0 30 0 0 97 0 97 35 -34 36 -35 -3 -95 -3 -95 -95 0 -95 0 -3 293 -2
292 99 0 99 0 118 -137z m584 -88 l0 -225 -30 0 -30 0 0 196 0 195 -32 -3 -33
-3 -3 -227 -2 -228 65 0 65 0 0 -30 0 -30 -95 0 -95 0 0 290 0 290 95 0 95 0
0 -225z m710 130 l0 -95 -220 0 -220 0 0 -35 0 -35 165 0 165 0 0 -30 0 -30
-195 0 -195 0 0 95 0 95 220 0 220 0 0 35 0 35 -255 0 -255 0 0 -230 0 -230
35 0 35 0 0 65 0 65 30 0 30 0 0 -95 0 -95 -95 0 -95 0 0 290 0 290 315 0 315
0 0 -95z m115 51 c0 -39 -2 -43 -15 -31 -8 8 -23 27 -33 44 l-18 31 33 0 c32
0 33 -1 33 -44z m-3223 -836 c-30 -12 -38 -38 -22 -64 12 -19 12 -20 -3 -7
-10 7 -17 20 -17 29 0 21 30 52 49 51 10 0 8 -4 -7 -9z m215 4 c-3 -3 -12 -4
-19 -1 -8 3 -5 6 6 6 11 1 17 -2 13 -5z m171 -1 c-13 -3 -18 -14 -18 -38 0
-22 6 -38 18 -44 14 -8 10 -10 -18 -10 -19 0 -29 3 -22 6 6 2 12 22 12 43 0
21 -6 41 -12 43 -7 3 3 5 22 5 19 0 27 -2 18 -5z m93 -3 c42 -23 16 -90 -35
-90 -12 0 -16 11 -16 50 0 53 10 61 51 40z m87 3 c-16 -2 -28 -11 -28 -19 0
-8 11 -15 28 -15 l27 -2 -27 -4 c-19 -3 -28 -10 -28 -23 0 -13 9 -20 28 -23
25 -4 25 -4 -5 -6 l-33 -1 0 50 0 50 33 -1 c30 -2 30 -2 5 -6z m116 -73 c3
-14 3 -19 0 -12 -7 15 -46 16 -62 0 -17 -17 -15 -7 9 49 l21 48 13 -30 c7 -16
15 -41 19 -55z m86 71 c0 -5 -9 -7 -20 -4 -28 7 -26 -20 3 -32 28 -13 30 -49
1 -53 -11 -2 -27 5 -35 15 -13 16 -12 17 3 4 18 -14 48 -9 48 8 0 5 -10 13
-22 17 -30 9 -40 25 -26 41 12 15 48 18 48 4z m148 2 c-14 -3 -18 -16 -20 -51
l-2 -47 -3 47 c-3 33 -9 48 -21 51 -9 3 1 5 23 5 22 0 32 -2 23 -5z m116 -9
c31 -30 9 -84 -34 -84 -11 0 -27 11 -36 25 -15 23 -15 27 0 50 19 29 47 32 70
9z m136 -64 c10 0 22 -4 25 -10 4 -6 -7 -10 -24 -10 -31 0 -31 0 -29 53 1 50
2 50 5 10 3 -34 8 -43 23 -43z m108 73 c-12 -3 -18 -14 -18 -35 0 -18 8 -37
18 -44 15 -12 13 -13 -20 -14 -21 0 -38 5 -38 10 0 6 7 10 15 10 23 0 20 67
-2 73 -10 3 0 5 22 5 22 0 32 -2 23 -5z m80 0 c-16 -2 -28 -11 -28 -19 0 -8
11 -15 28 -15 l27 -2 -27 -4 c-22 -3 -28 -10 -28 -29 0 -14 -4 -22 -10 -19
-11 7 -14 78 -3 88 3 4 20 6 37 6 30 -2 30 -2 4 -6z m90 0 c-34 -5 -38 -32 -5
-34 l22 -2 -22 -4 c-28 -5 -31 -33 -4 -33 11 0 23 -5 26 -11 5 -7 -5 -9 -26
-7 -30 3 -34 7 -37 36 -5 50 3 62 40 61 30 -2 31 -2 6 -6z m122 -35 c0 -29 18
-20 25 13 8 35 15 31 32 -14 l11 -32 7 33 c4 18 12 35 17 38 9 6 2 -34 -15
-76 l-9 -25 -16 35 -15 35 -10 -32 c-5 -18 -13 -33 -17 -33 -7 0 -30 77 -30
97 0 16 20 -22 20 -39z m178 35 c-12 -3 -18 -14 -18 -35 0 -18 8 -37 18 -44
15 -12 12 -13 -23 -13 -35 0 -38 1 -22 13 9 7 17 26 17 44 0 21 -6 32 -17 35
-10 3 0 5 22 5 22 0 32 -2 23 -5z m89 -5 c-9 -7 -18 -31 -20 -53 l-4 -40 -1
47 c-2 35 -6 48 -19 51 -10 3 0 5 21 6 34 1 37 -1 23 -11z m78 -28 c17 0 25 7
28 23 2 12 4 -3 4 -33 0 -30 -2 -42 -4 -27 -4 22 -9 28 -26 25 -13 -2 -24 -13
-28 -28 -5 -17 -7 -7 -7 30 1 30 3 45 5 33 3 -16 11 -23 28 -23z m146 -41 c30
-5 34 -1 40 36 l6 40 2 -42 c1 -34 -3 -43 -19 -48 -32 -10 -50 12 -48 59 l1
41 4 -42 c2 -24 8 -44 14 -44z m115 45 l19 -35 6 38 c6 36 6 35 8 -14 0 -29
-1 -53 -3 -53 -2 0 -14 17 -27 38 l-23 37 -7 -40 c-6 -40 -6 -39 -8 13 0 28 3
52 7 52 5 0 17 -16 28 -36z m117 29 c-7 -2 -13 -22 -13 -43 0 -21 6 -41 13
-43 6 -3 -4 -5 -23 -5 -19 0 -27 2 -17 5 12 3 17 15 17 43 0 28 -5 40 -17 43
-10 3 -2 5 17 5 19 0 29 -2 23 -5z m119 -10 c22 -20 23 -46 1 -64 -15 -13 -15
-12 -3 7 16 26 8 52 -22 64 -13 5 -17 9 -9 9 8 1 23 -6 33 -16z m-2364 -18
c-3 -3 -9 2 -12 12 -6 14 -5 15 5 6 7 -7 10 -15 7 -18z m39 -22 c-3 -10 -5 -2
-5 17 0 19 2 27 5 18 2 -10 2 -26 0 -35z m159 12 c-3 -9 -17 -14 -33 -14 l-28
2 28 4 c19 3 27 10 28 26 0 12 3 16 6 9 3 -7 2 -19 -1 -27z m2104 16 c-13 -25
-4 -48 21 -56 11 -4 17 -11 13 -16 -5 -9 -54 34 -54 47 0 9 20 44 26 44 2 0 0
-9 -6 -19z m173 -52 c-5 -5 -6 11 -3 34 4 41 5 41 8 8 2 -18 0 -37 -5 -42z
m70 40 l22 -2 -22 -4 c-13 -2 -24 -13 -26 -26 -2 -12 -4 -2 -4 23 -1 25 1 37
4 28 2 -10 14 -19 26 -19z m144 -31 c-2 -13 -4 -3 -4 22 0 25 2 35 4 23 2 -13
2 -33 0 -45z m70 0 c-2 -13 -4 -3 -4 22 0 25 2 35 4 23 2 -13 2 -33 0 -45z
m-2895 30 c-5 -7 -12 -22 -15 -33 -5 -20 -5 -20 -6 1 0 11 4 25 11 32 16 16
23 15 10 0z m129 -41 c-10 -9 -11 -8 -5 6 3 10 9 15 12 12 3 -3 0 -11 -7 -18z
m2433 7 c3 -8 2 -12 -4 -9 -6 3 -10 10 -10 16 0 14 7 11 14 -7z"/>
<path d="M2110 450 c0 -43 2 -45 31 -30 21 12 25 40 7 58 -24 24 -38 13 -38
-28z"/>
<path d="M2310 450 c0 -19 11 -26 23 -14 8 8 -3 34 -14 34 -5 0 -9 -9 -9 -20z"/>
<path d="M2652 478 c-26 -26 -2 -75 31 -62 26 10 32 45 11 61 -22 16 -27 16
-42 1z"/>
</g>
</svg>
