<?xml version="1.0" standalone="no"?>
<!DOCTYPE svg PUBLIC "-//W3C//DTD SVG 20010904//EN"
 "http://www.w3.org/TR/2001/REC-SVG-20010904/DTD/svg10.dtd">
<svg version="1.0" xmlns="http://www.w3.org/2000/svg"
 width="711.000000pt" height="325.000000pt" viewBox="0 0 711.000000 325.000000"
 preserveAspectRatio="xMidYMid meet">

<g transform="translate(0.000000,325.000000) scale(0.100000,-0.100000)"
fill="#000000" stroke="none">
<path d="M0 1625 l0 -1625 3555 0 3555 0 0 1625 0 1625 -3555 0 -3555 0 0
-1625z m1694 428 c13 -21 104 -180 201 -353 98 -173 202 -358 231 -411 52 -92
63 -119 47 -119 -5 0 -121 196 -259 435 l-252 435 -195 -337 c-306 -529 -315
-545 -326 -556 -7 -7 -8 -2 -4 14 11 44 511 929 525 929 4 0 19 -17 32 -37z
m2394 -148 c28 -9 64 -27 79 -40 l28 -24 -27 -27 -27 -28 -42 23 c-73 41 -159
20 -213 -53 -29 -39 -29 -133 0 -172 34 -46 70 -67 123 -72 42 -4 58 0 96 22
41 24 49 26 80 16 19 -6 35 -15 35 -19 0 -15 -67 -71 -104 -86 -22 -9 -66 -16
-98 -16 -169 0 -277 155 -226 324 17 58 93 132 154 151 63 19 80 19 142 1z
m770 -234 l2 -243 -28 24 c-16 13 -108 95 -205 182 l-177 159 0 59 c0 72 -20
82 176 -94 78 -71 145 -128 148 -128 3 0 6 62 6 138 0 76 2 141 5 143 2 3 19
4 37 4 l33 -1 3 -243z m-1608 -1 l0 -240 -40 0 -40 0 0 147 0 147 -57 -54 -58
-55 60 63 60 63 3 -151 3 -150 29 0 30 0 0 216 c0 134 -4 214 -10 212 -5 -1
-39 -32 -75 -67 -36 -35 -65 -60 -65 -55 0 7 150 164 157 164 2 0 3 -108 3
-240z m1130 0 l0 -166 -40 -39 -40 -39 0 244 0 244 40 -39 40 -39 0 -166z
m630 0 l0 -166 -40 -39 -40 -39 0 244 0 244 40 -39 40 -39 0 -166z m400 205
c0 -19 -4 -35 -8 -35 -5 0 -7 14 -4 30 l4 30 -143 0 -144 0 25 -25 c23 -22 33
-24 133 -26 59 -1 107 -5 107 -10 0 -5 -48 -9 -106 -9 l-106 0 -39 40 -40 40
161 0 160 0 0 -35z m138 28 c-10 -2 -26 -2 -35 0 -10 3 -2 5 17 5 19 0 27 -2
18 -5z m-1938 -150 c41 -82 76 -151 78 -155 2 -5 -17 -8 -42 -8 l-46 0 -34 71
-34 71 -78 -151 -77 -151 -44 0 -43 0 117 235 c65 129 120 235 123 235 3 0 39
-66 80 -147z m1930 107 c12 -16 19 -30 16 -30 -2 0 -14 14 -26 30 -12 17 -19
30 -16 30 2 0 14 -13 26 -30z m-3800 -92 c197 -349 303 -545 311 -572 l8 -31
-17 24 c-9 13 -97 160 -194 328 -97 167 -180 303 -185 301 -4 -1 -89 -142
-189 -312 -99 -170 -187 -312 -195 -314 -11 -3 -11 -2 -1 6 7 5 12 13 10 18
-6 20 359 664 376 664 7 0 41 -51 76 -112z m2445 -98 c-37 -38 -42 -40 -102
-40 l-63 0 0 40 0 40 102 0 102 0 -39 -40z m-2352 -276 c81 -144 147 -264 147
-266 0 -3 -69 -8 -154 -11 -175 -7 -476 2 -476 14 0 11 232 425 287 513 21 32
27 36 37 25 7 -8 79 -132 159 -275z m3577 236 l0 -39 -122 -3 -123 -3 -3 -78
-3 -78 -37 3 -37 3 -3 104 c-2 57 -1 110 2 117 4 11 40 14 166 14 l160 0 0
-40z m-2360 -24 c0 -2 -8 -10 -17 -17 -16 -13 -17 -12 -4 4 13 16 21 21 21 13z
m2520 -89 c0 -2 -10 -12 -22 -23 l-23 -19 19 23 c18 21 26 27 26 19z m-1820
-39 c25 -41 25 -57 3 -53 -10 2 -30 4 -44 4 -19 1 -30 10 -42 36 -9 20 -17 38
-17 40 0 3 18 5 40 5 35 0 43 -5 60 -32z m1771 -22 c-10 -12 -7 -15 21 -19
l33 -4 -37 -1 c-39 -2 -47 5 -26 26 17 17 23 15 9 -2z m-3326 -314 c-3 -3 -11
0 -18 7 -9 10 -8 11 6 5 10 -3 15 -9 12 -12z m982 -14 c-3 -7 -5 -2 -5 12 0
14 2 19 5 13 2 -7 2 -19 0 -25z m190 -15 c-3 -10 -5 -2 -5 17 0 19 2 27 5 18
2 -10 2 -26 0 -35z m38 17 c0 -13 -6 -24 -13 -26 -7 -1 -8 0 -2 3 5 2 10 13
10 23 0 10 -5 21 -10 23 -6 3 -5 4 2 3 7 -2 13 -13 13 -26z m32 -17 c-3 -10
-5 -2 -5 17 0 19 2 27 5 18 2 -10 2 -26 0 -35z m91 20 c8 -25 7 -28 -14 -28
-13 0 -24 3 -24 8 0 4 7 7 15 7 8 0 15 5 15 11 0 5 -4 7 -10 4 -11 -7 -14 8
-3 18 9 10 10 9 21 -20z m166 19 c-7 -4 -14 -18 -16 -32 -3 -23 -4 -22 -9 8
-5 27 -3 32 15 32 13 0 17 -3 10 -8z m81 -22 c0 -18 -6 -26 -23 -28 -13 -2
-25 3 -28 12 -10 26 4 48 28 44 17 -2 23 -10 23 -28z m93 -23 c12 -3 10 -5 -5
-6 -20 -1 -23 4 -22 32 2 29 2 29 6 5 2 -15 12 -29 21 -31z m67 23 c0 -23 -4
-30 -20 -30 -15 0 -17 2 -6 9 10 7 11 13 2 30 -10 18 -9 21 6 21 13 0 18 -8
18 -30z m50 20 l-20 -9 20 -1 c16 -2 17 -3 3 -7 -9 -2 -19 -12 -21 -21 -3 -9
-5 -2 -6 16 -1 27 2 32 22 31 21 0 21 -1 2 -9z m60 0 l-20 -9 20 -1 c17 -2 17
-3 3 -7 -10 -2 -18 -8 -18 -13 0 -5 8 -11 18 -13 13 -4 11 -5 -5 -6 -19 -1
-23 4 -23 29 0 25 4 30 23 29 21 0 21 -1 2 -9z m96 -20 c5 0 9 7 9 15 0 8 5
15 10 15 6 0 10 -7 10 -15 0 -8 -4 -15 -10 -15 -5 0 -10 -7 -10 -15 0 -15 -20
-22 -20 -7 0 4 -2 16 -4 27 -2 11 -1 14 1 8 3 -7 9 -13 14 -13z m112 23 c-7
-2 -13 -13 -13 -23 0 -10 6 -21 13 -23 6 -3 3 -6 -8 -6 -16 -1 -20 5 -20 29 0
24 4 30 20 29 11 0 14 -3 8 -6z m64 1 c-3 -3 -12 -4 -19 -1 -8 3 -5 6 6 6 11
1 17 -2 13 -5z m48 -14 c7 0 16 6 18 13 3 6 5 -4 5 -23 0 -19 -2 -27 -5 -17
-2 9 -11 17 -18 17 -7 0 -16 -8 -18 -17 -3 -10 -5 -2 -5 17 0 19 2 29 5 23 2
-7 11 -13 18 -13z m97 -9 c2 -17 1 -28 -4 -25 -8 5 -12 54 -4 54 2 0 6 -13 8
-29z m38 -1 c0 -16 -4 -30 -8 -30 -5 0 -7 14 -4 30 2 17 6 30 8 30 2 0 4 -13
4 -30z m32 -5 c-6 -34 -12 -32 -12 6 0 16 4 28 9 25 4 -3 6 -17 3 -31z m36
-12 c-3 -14 -5 -14 -18 2 -9 11 -10 16 -2 11 8 -5 12 0 13 16 1 17 3 18 6 6 2
-10 3 -25 1 -35z m169 10 c-3 -10 -5 -4 -5 12 0 17 2 24 5 18 2 -7 2 -21 0
-30z m70 -10 c-3 -10 -5 -2 -5 17 0 19 2 27 5 18 2 -10 2 -26 0 -35z m-500 -5
c-3 -7 -5 -2 -5 12 0 14 2 19 5 13 2 -7 2 -19 0 -25z m-707 7 c0 -8 -4 -15 -8
-15 -5 0 -9 7 -9 15 0 8 4 15 9 15 4 0 8 -7 8 -15z m586 -12 c-10 -10 -19 5
-10 18 6 11 8 11 12 0 2 -7 1 -15 -2 -18z m-2146 -72 c0 -17 -185 -23 -467
-17 -307 6 -304 6 -297 18 7 11 764 10 764 -1z m144 -106 c-5 -13 -72 -15
-520 -15 -450 0 -514 2 -514 15 0 13 64 15 520 15 458 0 519 -2 514 -15z"/>
<path d="M3949 1887 c-57 -21 -97 -54 -126 -105 -39 -66 -40 -157 -1 -223 75
-128 224 -155 345 -63 35 26 36 28 15 37 -16 7 -33 3 -73 -17 -64 -31 -108
-33 -166 -5 -85 41 -123 160 -77 239 51 87 141 120 227 82 44 -20 46 -20 62
-2 16 18 15 20 -25 40 -53 27 -134 35 -181 17z"/>
<path d="M4790 1744 l0 -156 -138 124 c-75 67 -147 132 -160 142 l-22 19 0
-39 c0 -38 5 -44 167 -189 91 -82 175 -156 185 -163 17 -13 18 -4 18 202 l0
216 -25 0 -25 0 0 -156z"/>
<path d="M4318 1676 c-2 -108 0 -196 3 -196 3 0 13 8 22 18 14 16 17 44 17
179 0 146 -2 161 -20 178 -19 17 -19 15 -22 -179z"/>
<path d="M4950 1670 l0 -203 25 23 c25 23 25 26 25 180 0 154 0 157 -25 180
l-25 23 0 -203z"/>
<path d="M3420 1662 c-58 -114 -106 -210 -108 -214 -2 -5 10 -8 27 -8 30 0 34
5 112 163 l82 162 41 -82 c33 -68 45 -83 63 -83 13 0 23 5 23 11 0 14 -123
259 -130 259 -3 0 -52 -93 -110 -208z"/>
<path d="M4040 1670 c0 -18 7 -20 53 -20 41 0 58 5 72 20 18 20 17 20 -53 20
-65 0 -72 -2 -72 -20z"/>
<path d="M1612 1536 c-29 -50 -90 -156 -137 -235 -47 -80 -85 -147 -85 -150 0
-6 376 -4 496 2 l52 2 -137 236 -137 236 -52 -91z m110 -158 c26 -46 50 -101
52 -122 l5 -37 -112 3 -112 3 1 35 c1 41 91 213 108 207 6 -2 32 -42 58 -89z"/>
<path d="M1613 1337 l-51 -82 95 -3 c53 -1 97 -1 100 1 2 3 -18 41 -45 86
l-49 81 -50 -83z"/>
<path d="M5100 1550 l0 -110 25 0 c25 0 25 1 25 80 l0 80 125 0 125 0 0 30 0
30 -150 0 -150 0 0 -110z"/>
<path d="M3682 1465 c8 -18 19 -25 39 -25 27 0 28 2 17 25 -8 18 -19 25 -39
25 -27 0 -28 -2 -17 -25z"/>
<path d="M3730 1130 c0 -13 7 -20 20 -20 13 0 20 7 20 20 0 13 -7 20 -20 20
-13 0 -20 -7 -20 -20z"/>
</g>
</svg>
