<?xml version="1.0" standalone="no"?>
<!DOCTYPE svg PUBLIC "-//W3C//DTD SVG 20010904//EN"
 "http://www.w3.org/TR/2001/REC-SVG-20010904/DTD/svg10.dtd">
<svg version="1.0" xmlns="http://www.w3.org/2000/svg"
 width="641.000000pt" height="237.000000pt" viewBox="0 0 641.000000 237.000000"
 preserveAspectRatio="xMidYMid meet">

<g transform="translate(0.000000,237.000000) scale(0.100000,-0.100000)"
fill="#000000" stroke="none">
<path d="M880 1140 l0 -510 510 0 510 0 0 510 0 510 -510 0 -510 0 0 -510z"/>
<path d="M2177 1404 c-4 -5 -7 -128 -7 -276 l1 -268 64 1 64 1 -2 272 -2 271
-55 3 c-31 2 -59 0 -63 -4z"/>
<path d="M2412 1138 l3 -273 61 -2 62 -2 1 112 c1 61 3 113 5 114 1 2 18 -35
37 -82 32 -79 49 -102 69 -90 5 3 26 47 47 98 l38 92 3 -122 3 -123 59 0 60 0
0 275 0 276 -61 -3 -62 -3 -44 -110 c-25 -60 -48 -113 -52 -118 -4 -4 -30 47
-57 113 l-49 120 -63 0 -62 0 2 -272z"/>
<path d="M3060 1153 c-40 -142 -75 -266 -78 -275 -4 -16 3 -18 56 -18 l61 0
11 40 11 41 72 -3 71 -3 9 -38 9 -38 59 2 c32 1 59 6 59 11 0 7 -115 417 -146
521 -4 14 -17 17 -63 17 l-58 0 -73 -257z m155 -40 l13 -41 -37 -4 -38 -3 14
45 c21 71 24 78 30 60 3 -8 11 -34 18 -57z"/>
<path d="M3563 1403 c-12 -2 -34 -18 -48 -34 -25 -30 -25 -31 -25 -235 l0
-204 29 -32 c28 -32 30 -32 132 -36 60 -2 122 1 147 7 67 19 77 42 79 197 l3
132 -98 -1 -97 -2 -3 -62 -3 -63 36 0 c35 0 35 0 35 -42 l0 -43 -67 1 -68 2 0
147 0 147 132 -1 131 -2 -1 63 -2 63 -145 1 c-80 1 -155 0 -167 -3z"/>
<path d="M3990 1135 l0 -275 60 0 60 0 0 275 0 275 -60 0 -60 0 0 -275z"/>
<path d="M4230 1135 l0 -275 60 0 60 0 1 148 1 147 70 -147 71 -148 64 1 63 1
-2 272 -3 271 -60 0 -60 0 -3 -140 -3 -140 -69 143 -69 142 -60 0 -61 0 0
-275z"/>
<path d="M4730 1136 l0 -276 65 1 64 1 -2 272 -2 271 -62 3 -63 3 0 -275z"/>
<path d="M4972 1138 l3 -273 57 -3 57 -3 3 107 3 107 78 -2 77 -2 0 66 0 66
-77 -2 -78 -2 -3 41 -3 42 110 0 111 0 0 65 0 65 -170 0 -170 0 2 -272z"/>
<path d="M5439 1388 c5 -13 39 -88 75 -167 l66 -145 0 -108 0 -109 63 3 62 3
3 108 3 108 71 157 c38 86 72 160 75 165 2 4 -23 7 -57 7 l-61 0 -47 -101 -48
-102 -46 102 -47 101 -60 0 c-59 0 -60 -1 -52 -22z"/>
</g>
</svg>
