<?xml version="1.0" standalone="no"?>
<!DOCTYPE svg PUBLIC "-//W3C//DTD SVG 20010904//EN"
 "http://www.w3.org/TR/2001/REC-SVG-20010904/DTD/svg10.dtd">
<svg version="1.0" xmlns="http://www.w3.org/2000/svg"
 width="578.000000pt" height="278.000000pt" viewBox="0 0 578.000000 278.000000"
 preserveAspectRatio="xMidYMid meet">

<g transform="translate(0.000000,278.000000) scale(0.100000,-0.100000)"
fill="#000000" stroke="none">
<path d="M0 1390 l0 -1390 2890 0 2890 0 0 1390 0 1390 -2890 0 -2890 0 0
-1390z m3267 514 c2 -6 -14 -18 -35 -26 l-39 -15 -12 -99 c-7 -55 -13 -151
-14 -214 -2 -107 -1 -115 18 -118 39 -7 39 -21 1 -37 -48 -20 -131 -17 -131 5
0 9 11 16 26 18 l26 3 6 166 c11 267 11 271 -15 275 -40 5 -26 32 22 45 54 14
142 12 147 -3z m1126 -29 c-1 -11 -9 -49 -17 -85 -9 -36 -21 -108 -28 -161
-11 -92 -11 -98 9 -129 21 -32 21 -32 32 -11 7 12 20 54 30 94 15 57 23 73 39
75 19 3 19 -1 15 -110 -4 -105 -3 -111 11 -86 9 14 22 68 31 119 16 99 24 115
50 105 13 -5 15 -12 10 -29 -4 -12 -10 -79 -12 -149 l-5 -127 43 -3 c32 -2 45
-8 47 -20 3 -15 -4 -18 -36 -18 l-39 0 -6 -66 c-9 -89 -32 -135 -79 -152 -34
-13 -41 -12 -81 7 -24 11 -53 21 -64 21 -52 0 -67 48 -61 202 3 103 3 104 -15
81 -24 -30 -53 -29 -70 3 l-14 26 -16 -26 c-10 -14 -24 -26 -32 -26 -19 0 -45
39 -45 67 0 34 -17 28 -24 -9 -6 -32 -23 -58 -37 -58 -18 0 -39 33 -40 63 l-1
32 -10 -30 c-23 -66 -65 -84 -94 -40 -14 21 -15 41 -9 125 4 55 11 103 16 106
5 3 17 0 27 -5 17 -9 18 -15 5 -88 -13 -72 -10 -134 4 -119 3 3 21 47 38 98
26 74 37 94 54 96 20 3 21 0 16 -75 l-5 -78 20 55 c10 30 19 67 19 82 1 39 11
58 31 58 34 0 41 -22 30 -101 -10 -72 -6 -134 9 -124 10 6 49 131 53 169 3 34
17 42 41 24 13 -11 15 -20 7 -53 -5 -22 -9 -67 -9 -100 l1 -60 23 50 c30 62
49 140 65 265 16 122 24 142 53 138 15 -2 21 -9 20 -23z m-455 -117 c17 -17
15 -55 -4 -62 -20 -8 -44 10 -44 33 0 17 18 41 30 41 3 0 11 -5 18 -12z m306
6 c19 -7 22 -60 4 -67 -35 -12 -63 34 -36 61 14 14 12 14 32 6z m-441 -82 c19
-16 24 -72 6 -72 -6 0 -13 9 -16 20 -3 11 -9 20 -13 20 -12 0 -40 -123 -40
-172 1 -38 2 -41 14 -25 8 10 22 47 32 83 14 46 23 64 34 62 12 -3 14 -20 11
-101 l-3 -97 45 0 c45 0 75 -19 62 -40 -3 -5 -28 -10 -56 -10 l-49 0 0 -60 c0
-104 -33 -152 -105 -152 -71 0 -129 55 -123 119 4 45 49 84 128 112 60 21 83
48 32 37 -24 -6 -33 -3 -50 18 -19 25 -20 25 -37 6 -17 -19 -20 -19 -43 -4
-22 15 -25 14 -39 -5 -19 -27 -48 -27 -67 1 -12 17 -18 20 -28 10 -24 -24 -58
-14 -70 19 l-11 31 -12 -29 c-25 -60 -75 -43 -75 25 l-1 37 -17 -50 c-13 -38
-23 -51 -39 -53 -33 -5 -43 32 -40 141 2 85 4 92 22 92 17 0 21 -9 26 -60 3
-33 6 -50 7 -38 3 34 32 101 46 106 31 12 41 -11 39 -90 l-1 -78 18 60 c10 33
21 72 24 86 7 32 28 42 50 26 14 -10 15 -20 6 -66 -12 -66 -13 -131 -1 -131
10 0 35 60 46 110 12 60 46 130 63 130 25 0 52 -31 52 -60 0 -39 -12 -45 -26
-13 l-12 28 -11 -27 c-18 -46 -35 -154 -27 -174 7 -17 9 -16 22 9 8 15 18 50
21 77 6 50 9 55 35 45 11 -4 13 -21 10 -65 -2 -33 -2 -60 2 -60 9 0 37 59 62
134 40 115 52 126 97 88z"/>
<path d="M4402 1425 c-11 -25 -7 -125 5 -125 3 0 17 9 33 20 15 11 39 24 54
30 22 8 26 16 26 46 0 35 -1 36 -18 21 -26 -24 -47 -21 -69 9 l-19 26 -12 -27z"/>
<path d="M4325 1362 c-7 -83 0 -162 15 -162 23 0 25 185 2 226 -7 13 -11 -3
-17 -64z"/>
<path d="M4469 1296 c-41 -28 -73 -87 -64 -116 8 -25 50 -37 71 -19 27 22 44
66 44 114 0 25 -3 45 -8 45 -4 0 -24 -11 -43 -24z"/>
<path d="M3745 1339 c-42 -12 -105 -66 -105 -90 0 -30 44 -69 79 -69 46 0 71
39 71 111 0 33 -3 59 -7 58 -5 0 -21 -5 -38 -10z"/>
</g>
</svg>
